<?xml version="1.0" encoding="utf-8"?>
<!-- Generator: Adobe Illustrator 19.0.0, SVG Export Plug-In . SVG Version: 6.00 Build 0)  -->
<svg version="1.1" id="Layer_1" xmlns="http://www.w3.org/2000/svg" xmlns:xlink="http://www.w3.org/1999/xlink" x="0px" y="0px"
	 viewBox="-229 31 500 500" style="enable-background:new -229 31 500 500;" xml:space="preserve">
<path d="M-188.1,467.7c0,20.1,16.3,36.3,36.3,36.3h363.4c20.1,0,36.3-16.3,36.3-36.3V104.3c0-20.1-16.3-36.3-36.3-36.3h-363.3
	c-20.1,0-36.3,16.3-36.3,36.3L-188.1,467.7L-188.1,467.7z M39.1,449.5V304.2H2.8v-54.5h36.3c0-93.7,4-99.9,118.1-99.9v54.5
	c-60.1,0-54.5,3.4-54.5,45.4h54.5v54.5h-54.5v145.4L39.1,449.5L39.1,449.5z"/>
</svg>
