<?xml version="1.0" encoding="utf-8"?>
<!-- Generator: Adobe Illustrator 19.0.0, SVG Export Plug-In . SVG Version: 6.00 Build 0)  -->
<svg version="1.1" id="Layer_1" xmlns="http://www.w3.org/2000/svg" xmlns:xlink="http://www.w3.org/1999/xlink" x="0px" y="0px"
	 viewBox="-467 269 24 24" style="enable-background:new -467 269 24 24;" xml:space="preserve">
<path d="M-455,285.8c2.6,0,4.7-2.1,4.7-4.7c0-1.4-0.6-2.7-1.6-3.5c-0.3-0.3-0.7-0.6-1.2-0.7c-0.6-0.3-1.2-0.4-1.9-0.4
	s-1.3,0.2-1.9,0.4c-0.4,0.2-0.8,0.4-1.2,0.7c-1,0.9-1.6,2.1-1.6,3.5C-459.7,283.7-457.6,285.8-455,285.8z M-455,277.6
	c1.9,0,3.5,1.6,3.5,3.5s-1.6,3.5-3.5,3.5s-3.5-1.6-3.5-3.5S-456.9,277.6-455,277.6z M-449.8,278h6.8v10.3c0,2.6-2.1,4.7-4.7,4.7
	h-14.5c-2.6,0-4.8-2.1-4.8-4.7V278h6.7c-0.5,0.9-0.9,2-0.9,3.1c0,3.4,2.7,6.1,6.1,6.1s6.1-2.7,6.1-6.1
	C-448.9,280-449.2,278.9-449.8,278z M-447.7,269H-460v5h-1v-5h-1v5h-1v-4.9c-0.3,0.1-0.7,0.1-1,0.3v4.7h-1V270c-1.2,0.9-2,2.2-2,3.8
	v3.3h7.5c1.2-1.3,2.8-2,4.5-2s3.4,0.7,4.5,2h7.5v-3.3C-443,271.1-445.1,269-447.7,269z M-445,274.3c0,0.4-0.3,0.7-0.7,0.7h-2.5
	c-0.4,0-0.7-0.3-0.7-0.7v-2.5c0-0.4,0.3-0.7,0.7-0.7h2.5c0.4,0,0.7,0.3,0.7,0.7C-445,271.7-445,274.3-445,274.3z"/>
</svg>
