<?xml version="1.0" encoding="utf-8"?>
<!-- Generator: Adobe Illustrator 19.0.0, SVG Export Plug-In . SVG Version: 6.00 Build 0)  -->
<svg version="1.1" id="Layer_1" xmlns="http://www.w3.org/2000/svg" xmlns:xlink="http://www.w3.org/1999/xlink" x="0px" y="0px"
	 viewBox="-285 408.9 24 24" style="enable-background:new -285 408.9 24 24;" xml:space="preserve">
<style type="text/css">
	.st0{fill:#C7A17A;}
</style>
<path class="st0" d="M-273,425.7c2.6,0,4.7-2.1,4.7-4.7c0-1.4-0.6-2.7-1.6-3.5c-0.3-0.3-0.7-0.6-1.2-0.7c-0.6-0.3-1.2-0.4-1.9-0.4
	c-0.7,0-1.3,0.2-1.9,0.4c-0.4,0.2-0.8,0.4-1.2,0.7c-1,0.9-1.6,2.1-1.6,3.5C-277.7,423.6-275.6,425.7-273,425.7z M-273,417.5
	c1.9,0,3.5,1.6,3.5,3.5c0,1.9-1.6,3.5-3.5,3.5s-3.5-1.6-3.5-3.5C-276.5,419.1-274.9,417.5-273,417.5z M-267.8,417.9h6.8v10.3
	c0,2.6-2.1,4.7-4.7,4.7h-14.5c-2.6,0-4.8-2.1-4.8-4.7v-10.3h6.7c-0.5,0.9-0.9,2-0.9,3.1c0,3.4,2.7,6.1,6.1,6.1
	c3.4,0,6.1-2.7,6.1-6.1C-266.9,419.9-267.2,418.8-267.8,417.9z M-265.7,408.9H-278v5h-1v-5h-1v5h-1V409c-0.3,0.1-0.7,0.1-1,0.3v4.7
	h-1v-4.1c-1.2,0.9-2,2.2-2,3.8v3.3h7.5c1.2-1.3,2.8-2,4.5-2c1.7,0,3.4,0.7,4.5,2h7.5v-3.3C-261,411-263.1,408.9-265.7,408.9z
	 M-263,414.2c0,0.4-0.3,0.7-0.7,0.7h-2.5c-0.4,0-0.7-0.3-0.7-0.7v-2.5c0-0.4,0.3-0.7,0.7-0.7h2.5c0.4,0,0.7,0.3,0.7,0.7
	C-263,411.6-263,414.2-263,414.2z"/>
</svg>
